<svg width="65" height="30" viewBox="0 0 81 42" fill="none" xmlns="http://www.w3.org/2000/svg">
<path d="M11.1737 35.8207C18.3261 35.8207 18.3261 14.1168 11.1737 14.1168C4.26791 14.1168 4.26791 35.8207 11.1737 35.8207ZM11.1737 9.1841C-2.39123 9.1841 -2.39123 41 11.1737 41C24.9852 41 24.9852 9.1841 11.1737 9.1841ZM11.1737 11.4038C21.779 11.4038 21.779 38.5337 11.1737 38.5337C0.815024 38.5337 0.815024 11.4038 11.1737 11.4038ZM20.0525 39.0269L71.3526 26.9418C82.2045 24.2288 81.7113 -0.188028 71.3526 1.04515L17.3396 8.19756C25.9718 14.3634 25.9718 31.1346 20.0525 39.0269Z" stroke="#092474" stroke-width="2"/>
</svg>
