<svg width="64" height="40" viewBox="0 0 64 40" fill="none" xmlns="http://www.w3.org/2000/svg">
<mask id="path-1-inside-1_5626_32681" fill="white">
<path d="M62.2024 21H56.5476V20.1113C56.5476 18.9473 55.5326 18 54.2857 18H52.0238C50.7769 18 49.7619 18.9473 49.7619 20.1113V21H48.6309C44.6511 21 41.3563 18.3866 40.8046 15H41.8452C43.0921 15 44.1071 14.103 44.1071 13V11C44.1071 9.897 43.0921 9 41.8452 9H37.4129L40.1272 6H46.369C48.24 6 49.7619 4.6543 49.7619 3C49.7619 1.3457 48.24 0 46.369 0H16.9643C15.0933 0 13.5714 1.3457 13.5714 3C13.5714 4.6543 15.0933 6 16.9643 6H23.2068L25.9211 9H21.4881C20.2407 9 19.2262 9.897 19.2262 11V13C19.2262 14.103 20.2407 15 21.4881 15H22.5288C21.9771 18.3866 18.6828 21 14.7024 21H13.5714V20.1113C13.5714 18.9473 12.557 18 11.3095 18H9.04762C7.80018 18 6.78571 18.9473 6.78571 20.1113V21H1.13095C0.50644 21 0 21.4478 0 22V36C0 36.5522 0.50644 37 1.13095 37H6.78571V37.8887C6.78571 39.0527 7.80018 40 9.04762 40H11.3095C12.557 40 13.5714 39.0527 13.5714 37.8887V37H49.7619V37.8887C49.7619 39.0527 50.7769 40 52.0238 40H54.2857C55.5326 40 56.5476 39.0527 56.5476 37.8887V37H62.2024C62.8275 37 63.3333 36.5522 63.3333 36V22C63.3333 21.4478 62.8275 21 62.2024 21ZM15.8333 3C15.8333 2.4487 16.3408 2 16.9643 2H46.369C46.9931 2 47.5 2.4487 47.5 3C47.5 3.5513 46.9931 4 46.369 4H39.5833H23.75H16.9643C16.3408 4 15.8333 3.5513 15.8333 3ZM26.1031 6H37.2298L34.5162 9H28.8172L26.1031 6ZM21.4881 11H28.2738H35.0595H41.8452L41.8464 13H39.5833H23.75H21.4881V11ZM2.2619 35V23H6.78571V35H2.2619ZM11.3095 37.8887C11.3095 37.9463 11.2869 37.9829 11.272 38L9.09681 38.0107C9.0863 38.0039 9.04762 37.9644 9.04762 37.8887V36V22V20.1113C9.04762 20.0425 9.07963 20.0034 9.05587 20L11.2603 19.9893C11.2708 19.9961 11.3095 20.0356 11.3095 20.1113V22V36V37.8887ZM13.5714 35V23H14.7024C19.9325 23 24.2542 19.4937 24.8185 15H38.5153C39.0796 19.4937 43.4002 23 48.6308 23H49.7618V35H13.5714ZM54.2857 37.8887C54.2857 37.9463 54.2637 37.9829 54.2482 38L52.0724 38.0107C52.0625 38.0039 52.0238 37.9644 52.0238 37.8887V36V22V20.1113C52.0238 20.0425 52.0558 20.0034 52.0326 20L54.2371 19.9893C54.247 19.9961 54.2857 20.0356 54.2857 20.1113V22V36V37.8887ZM61.0714 35H56.5476V23H61.0714V35Z"/>
</mask>
<path d="M62.2024 21H56.5476V20.1113C56.5476 18.9473 55.5326 18 54.2857 18H52.0238C50.7769 18 49.7619 18.9473 49.7619 20.1113V21H48.6309C44.6511 21 41.3563 18.3866 40.8046 15H41.8452C43.0921 15 44.1071 14.103 44.1071 13V11C44.1071 9.897 43.0921 9 41.8452 9H37.4129L40.1272 6H46.369C48.24 6 49.7619 4.6543 49.7619 3C49.7619 1.3457 48.24 0 46.369 0H16.9643C15.0933 0 13.5714 1.3457 13.5714 3C13.5714 4.6543 15.0933 6 16.9643 6H23.2068L25.9211 9H21.4881C20.2407 9 19.2262 9.897 19.2262 11V13C19.2262 14.103 20.2407 15 21.4881 15H22.5288C21.9771 18.3866 18.6828 21 14.7024 21H13.5714V20.1113C13.5714 18.9473 12.557 18 11.3095 18H9.04762C7.80018 18 6.78571 18.9473 6.78571 20.1113V21H1.13095C0.50644 21 0 21.4478 0 22V36C0 36.5522 0.50644 37 1.13095 37H6.78571V37.8887C6.78571 39.0527 7.80018 40 9.04762 40H11.3095C12.557 40 13.5714 39.0527 13.5714 37.8887V37H49.7619V37.8887C49.7619 39.0527 50.7769 40 52.0238 40H54.2857C55.5326 40 56.5476 39.0527 56.5476 37.8887V37H62.2024C62.8275 37 63.3333 36.5522 63.3333 36V22C63.3333 21.4478 62.8275 21 62.2024 21ZM15.8333 3C15.8333 2.4487 16.3408 2 16.9643 2H46.369C46.9931 2 47.5 2.4487 47.5 3C47.5 3.5513 46.9931 4 46.369 4H39.5833H23.75H16.9643C16.3408 4 15.8333 3.5513 15.8333 3ZM26.1031 6H37.2298L34.5162 9H28.8172L26.1031 6ZM21.4881 11H28.2738H35.0595H41.8452L41.8464 13H39.5833H23.75H21.4881V11ZM2.2619 35V23H6.78571V35H2.2619ZM11.3095 37.8887C11.3095 37.9463 11.2869 37.9829 11.272 38L9.09681 38.0107C9.0863 38.0039 9.04762 37.9644 9.04762 37.8887V36V22V20.1113C9.04762 20.0425 9.07963 20.0034 9.05587 20L11.2603 19.9893C11.2708 19.9961 11.3095 20.0356 11.3095 20.1113V22V36V37.8887ZM13.5714 35V23H14.7024C19.9325 23 24.2542 19.4937 24.8185 15H38.5153C39.0796 19.4937 43.4002 23 48.6308 23H49.7618V35H13.5714ZM54.2857 37.8887C54.2857 37.9463 54.2637 37.9829 54.2482 38L52.0724 38.0107C52.0625 38.0039 52.0238 37.9644 52.0238 37.8887V36V22V20.1113C52.0238 20.0425 52.0558 20.0034 52.0326 20L54.2371 19.9893C54.247 19.9961 54.2857 20.0356 54.2857 20.1113V22V36V37.8887ZM61.0714 35H56.5476V23H61.0714V35Z" stroke="#092474" stroke-width="4" mask="url(#path-1-inside-1_5626_32681)"/>
</svg>
