<svg width="43" height="42" viewBox="0 0 43 42" fill="none" xmlns="http://www.w3.org/2000/svg">
<path fill-rule="evenodd" clip-rule="evenodd" d="M21.0922 1C32.1521 1 41.1843 9.84793 41.1843 21.0922C41.1843 32.1521 32.1521 41 21.0922 41C10.0323 41 1 32.1521 1 21.0922C1 9.84793 10.0323 1 21.0922 1Z" stroke="#092474" stroke-width="2"/>
<path fill-rule="evenodd" clip-rule="evenodd" d="M21.0741 11C26.5556 11 31.1481 15.4444 31.1481 21.0741C31.1481 26.5556 26.5556 31 21.0741 31C15.4444 31 11 26.5556 11 21.0741C11 15.4444 15.4444 11 21.0741 11Z" stroke="#092474" stroke-width="2"/>
<path fill-rule="evenodd" clip-rule="evenodd" d="M36.3135 19.0645C37.4195 19.0645 38.1569 19.9861 38.1569 21.0921C38.1569 22.0138 37.4195 22.9354 36.3135 22.9354C35.3919 22.9354 34.4702 22.0138 34.4702 21.0921C34.4702 19.9861 35.3919 19.0645 36.3135 19.0645Z" stroke="#092474" stroke-width="2"/>
<path fill-rule="evenodd" clip-rule="evenodd" d="M31.2302 9.19069C31.9676 8.45336 33.2579 8.45336 33.8109 9.19069C34.5482 9.92802 34.5482 11.034 33.8109 11.7713C33.2579 12.5087 31.9676 12.5087 31.2302 11.7713C30.4929 11.034 30.4929 9.92802 31.2302 9.19069Z" stroke="#092474" stroke-width="2"/>
<path fill-rule="evenodd" clip-rule="evenodd" d="M19.2488 5.68609C19.2488 4.76443 19.9861 3.84277 21.0921 3.84277C22.0138 3.84277 22.9354 4.76443 22.9354 5.68609C22.9354 6.79208 22.0138 7.52941 21.0921 7.52941C19.9861 7.52941 19.2488 6.79208 19.2488 5.68609Z" stroke="#092474" stroke-width="2"/>
<path fill-rule="evenodd" clip-rule="evenodd" d="M8.18923 11.7713C7.4519 11.034 7.4519 9.92802 8.18923 9.19069C8.92655 8.45336 10.2169 8.45336 10.9542 9.19069C11.5072 9.92802 11.5072 11.034 10.9542 11.7713C10.2169 12.5087 8.92655 12.5087 8.18923 11.7713Z" stroke="#092474" stroke-width="2"/>
<path fill-rule="evenodd" clip-rule="evenodd" d="M5.68707 22.9354C4.76541 22.9354 3.84375 22.0138 3.84375 21.0921C3.84375 19.9861 4.76541 19.0645 5.68707 19.0645C6.79306 19.0645 7.71472 19.9861 7.71472 21.0921C7.71472 22.0138 6.79306 22.9354 5.68707 22.9354Z" stroke="#092474" stroke-width="2"/>
<path fill-rule="evenodd" clip-rule="evenodd" d="M11.9542 33.8114C11.2169 34.5487 9.92655 34.5487 9.18923 33.8114C8.4519 33.074 8.4519 31.9681 9.18923 31.2307C9.92655 30.4934 11.2169 30.4934 11.9542 31.2307C12.5072 31.9681 12.5072 33.074 11.9542 33.8114Z" stroke="#092474" stroke-width="2"/>
<path fill-rule="evenodd" clip-rule="evenodd" d="M22.9354 36.3111C22.9354 37.2328 22.0138 38.1544 21.0921 38.1544C19.9861 38.1544 19.2488 37.2328 19.2488 36.3111C19.2488 35.2051 19.9861 34.4678 21.0921 34.4678C22.0138 34.4678 22.9354 35.2051 22.9354 36.3111Z" stroke="#092474" stroke-width="2"/>
<path fill-rule="evenodd" clip-rule="evenodd" d="M33.8109 30.2307C34.5482 30.9681 34.5482 32.074 33.8109 32.8114C33.2579 33.5487 31.9676 33.5487 31.2302 32.8114C30.4929 32.074 30.4929 30.9681 31.2302 30.2307C31.9676 29.4934 33.2579 29.4934 33.8109 30.2307Z" stroke="#092474" stroke-width="2"/>
</svg>
