<svg width="42" height="42" viewBox="0 0 42 42" fill="none" xmlns="http://www.w3.org/2000/svg">
<path fill-rule="evenodd" clip-rule="evenodd" d="M36.625 20.0625C36.3125 20.0625 36 20.0625 36 20.0625L35.375 18.5H34.75V18.8125L34.125 20.0625H33.8125L33.1875 18.5H32.5625V18.8125L31.9375 20.0625V20.375C26.625 20.6875 21.3125 22.5625 20.375 31.9375L18.5 32.5625V32.875V33.1875L20.0625 33.8125C20.0625 34.125 20.0625 34.125 20.0625 34.4375L18.5 35.0625V35.375L20.0625 36C20.0625 36.3125 19.75 36.3125 19.75 36.625L18.5 37.25V37.5625L19.75 38.1875V38.8125L18.5 39.4375V39.75L19.75 40.375V41H23.8125C24.125 41 24.4375 40.6875 24.4375 40.375V38.5C24.4375 38.1875 24.125 37.875 23.8125 37.875H22.875C22.875 25.6875 27.875 22.875 37.875 22.875V23.8125C37.875 24.125 38.1875 24.4375 38.5 24.4375H40.0625C40.6875 24.4375 41 24.125 41 23.8125V20.0625H40.375L39.75 18.5H39.4375V18.8125L38.8125 20.0625H38.1875L37.5625 18.5H37.25V18.8125L36.625 20.0625ZM6.9375 33.1875L5.6875 33.8125C5.6875 33.8125 5.6875 34.125 5.6875 34.4375L6.9375 35.0625V35.375L5.6875 36C5.6875 36.3125 5.6875 36.3125 5.6875 36.625L6.9375 37.25V37.5625L5.6875 38.1875V38.8125L6.9375 39.4375V39.75L5.6875 40.375V41H1.9375C1.3125 41 1 40.6875 1 40.375V38.5C1 38.1875 1.3125 37.875 1.9375 37.875H2.875C2.875 14.125 12.5625 2.875 37.875 2.875V1.9375C37.875 1.3125 38.1875 1 38.5 1H40.0625C40.6875 1 41 1.3125 41 1.9375V5.6875H40.375L39.75 6.9375H39.4375L38.8125 5.6875H38.1875L37.5625 6.9375H37.25L36.625 5.6875C36.3125 5.6875 36 5.6875 36 5.6875L35.375 6.9375H34.75L34.4375 5.6875C34.125 5.6875 33.8125 5.6875 33.8125 5.6875L33.1875 6.9375H32.5625L32.25 6C31.9375 6 31.625 6 31.3125 6C16.625 7.25 7.25 14.125 6 32.25C6.3125 32.25 6.9375 32.5625 6.9375 32.5625V32.875V33.1875Z" stroke="#092474" stroke-width="1.5" stroke-linecap="round" stroke-linejoin="round"/>
</svg>
