<svg width="66" height="50" viewBox="0 0 66 50" fill="none" xmlns="http://www.w3.org/2000/svg">
<path fill-rule="evenodd" clip-rule="evenodd" d="M4.65434 21.3794C3.61384 21.6077 2.70621 22.2188 2.04083 23.159C1.16733 24.3933 0.827209 26.0205 1.08296 27.7407L2.96771 40.414C3.05221 40.9819 3.46821 41.3959 3.95458 41.3959H7.39521L7.39678 41.4091C7.4075 41.4996 7.41824 41.5902 7.43171 41.6813C8.03183 45.7169 11.2947 48.9999 14.7052 48.9999C16.4187 48.9999 17.9268 48.2023 18.9518 46.7539C19.9738 45.3101 20.3821 43.4114 20.1103 41.396H40.4017L40.4033 41.4091L40.4033 41.4092L40.4033 41.4093L40.4033 41.4094C40.414 41.4998 40.4248 41.5904 40.4382 41.6815C41.0384 45.717 44.3012 49 47.7117 49C49.4252 49 50.9334 48.2025 51.9584 46.7541C52.9802 45.3104 53.3885 43.4117 53.1169 41.3962H58.3386C58.9139 41.3962 59.4472 41.1087 59.802 40.6074C60.1602 40.1011 60.3075 39.4184 60.2059 38.7345L59.8477 36.3269H63.9979C64.5514 36.3269 65 35.7948 65 35.1387C65 34.4824 64.5512 33.9505 63.9979 33.9505H53.3092C52.7557 33.9505 52.3071 34.4826 52.3071 35.1387C52.3071 35.795 52.7559 36.3269 53.3092 36.3269H57.8129L58.2134 39.0198L52.4661 39.02C51.2252 36.0819 48.5746 33.9507 45.8272 33.9507C44.1137 33.9507 42.6056 34.7482 41.5806 36.1966C41.003 37.0126 40.6219 37.9742 40.4477 39.0198H21.8975L20.5357 29.8631C20.4397 29.2167 19.9197 28.7852 19.375 28.8993C18.8298 29.0131 18.4661 29.6294 18.5621 30.2755L19.8625 39.0197H19.4596C18.2187 36.0816 15.5681 33.9504 12.8207 33.9504C11.1073 33.9504 9.59909 34.7479 8.57421 36.1963C7.99659 37.0122 7.61546 37.9739 7.44133 39.0195H4.79571L4.01821 33.7918H4.96171C5.81533 33.7918 6.60246 33.3716 7.12096 32.6387C7.64671 31.8958 7.86121 30.8839 7.70934 29.8628L7.33246 27.3281C7.24796 26.7602 6.83196 26.3462 6.34558 26.3462H3.01696C3.06246 25.715 3.25171 25.1444 3.57608 24.686C4.04746 24.0201 4.76308 23.6533 5.59134 23.6532H5.59271H5.59408H17.5773L17.8083 25.2062C17.9043 25.8524 18.4247 26.2837 18.9691 26.17C19.5142 26.0562 19.8781 25.44 19.782 24.7938L16.5968 3.37622L52.6846 3.37607C52.7799 3.37607 52.9339 3.51983 52.955 3.66167L56.159 25.2062C56.2446 25.7826 56.6675 26.1883 57.1446 26.1883C57.2025 26.1883 57.261 26.1823 57.3197 26.17C57.8647 26.0562 58.2286 25.44 58.1326 24.7938L54.9287 3.24921C54.7411 1.98781 53.7554 1 52.6845 1H16.4713C15.8961 1 15.3627 1.28752 15.008 1.78876C14.6497 2.29504 14.5025 2.97784 14.6041 3.66167L14.9622 6.06931H7.60546C6.45684 6.06931 5.44296 6.60834 4.75046 7.58681C4.05709 8.56632 3.77533 9.9073 3.97733 11.2658L4.16583 12.5331C4.24983 13.0973 4.66096 13.5091 5.14309 13.5145L4.65434 21.3794ZM16.0688 13.5137L17.2231 21.2761H6.66939L7.15176 13.5137H16.0688ZM5.95106 10.85L5.99356 11.1354H15.7161L15.3156 8.44336H7.60543C7.05956 8.44336 6.59081 8.68069 6.2858 9.11166C5.96955 9.55817 5.85056 10.1754 5.95106 10.85ZM47.7096 46.619C45.2263 46.619 42.8487 44.217 42.4097 41.2643C42.2076 39.9052 42.4576 38.6462 43.1136 37.7194C43.7512 36.8185 44.7142 36.3223 45.8249 36.3223C48.3082 36.3223 50.6857 38.7243 51.1248 41.677C51.3269 43.0361 51.0769 44.295 50.4209 45.222C49.7833 46.1228 48.8203 46.619 47.7096 46.619ZM9.40554 41.2644C9.84466 44.2172 12.2222 46.6192 14.7054 46.6192C15.8162 46.6192 16.7792 46.123 17.4168 45.222C18.0728 44.295 18.3228 43.0361 18.1207 41.677C17.6817 38.7243 15.304 36.3223 12.8208 36.3223C11.7102 36.3223 10.747 36.8185 10.1094 37.7194C9.45341 38.6463 9.20341 39.9053 9.40554 41.2644ZM4.96071 31.4184H3.66384L3.26334 28.7266H5.50371L5.73471 30.2787C5.78421 30.611 5.73084 30.9077 5.58471 31.1143C5.44384 31.3131 5.22809 31.4183 4.96071 31.4183V31.4184Z" fill="#092474"/>
<path d="M2.04083 23.159L2.08164 23.1879L2.04083 23.159ZM4.65434 21.3794L4.70424 21.3825L4.7019 21.4201L4.66506 21.4282L4.65434 21.3794ZM1.08296 27.7407L1.0335 27.7481V27.7481L1.08296 27.7407ZM2.96771 40.414L2.91826 40.4214L2.91825 40.4214L2.96771 40.414ZM7.39521 41.3959V41.3459H7.43964L7.44486 41.39L7.39521 41.3959ZM7.39678 41.4091L7.34713 41.415V41.415L7.39678 41.4091ZM7.43171 41.6813L7.38225 41.6887L7.38225 41.6886L7.43171 41.6813ZM18.9518 46.7539L18.911 46.725L18.911 46.725L18.9518 46.7539ZM20.1103 41.396L20.0608 41.4027L20.0532 41.346H20.1103V41.396ZM40.4017 41.396V41.346H40.4462L40.4514 41.3902L40.4017 41.396ZM40.4033 41.4091L40.3537 41.4153L40.3536 41.415L40.4033 41.4091ZM40.4033 41.4094L40.4529 41.4032L40.453 41.4035L40.4033 41.4094ZM40.4382 41.6815L40.3888 41.6888L40.3888 41.6888L40.4382 41.6815ZM51.9584 46.7541L51.9176 46.7252L51.9176 46.7252L51.9584 46.7541ZM53.1169 41.3962L53.0673 41.4029L53.0597 41.3462H53.1169V41.3962ZM59.802 40.6074L59.8428 40.6363L59.8428 40.6363L59.802 40.6074ZM60.2059 38.7345L60.2553 38.7272L60.2553 38.7272L60.2059 38.7345ZM59.8477 36.3269L59.7983 36.3342L59.7898 36.2769H59.8477V36.3269ZM57.8129 36.3269V36.2769H57.856L57.8623 36.3195L57.8129 36.3269ZM58.2134 39.0198L58.2628 39.0125L58.2714 39.0698H58.2134L58.2134 39.0198ZM52.4661 39.02L52.4661 39.07H52.433L52.4201 39.0394L52.4661 39.02ZM41.5806 36.1966L41.6214 36.2255L41.6214 36.2255L41.5806 36.1966ZM40.4477 39.0198L40.4971 39.028L40.4901 39.0698H40.4477V39.0198ZM21.8975 39.0198V39.0698H21.8544L21.848 39.0272L21.8975 39.0198ZM20.5357 29.8631L20.4863 29.8704V29.8704L20.5357 29.8631ZM19.375 28.8993L19.3852 28.9482L19.3852 28.9482L19.375 28.8993ZM18.5621 30.2755L18.5126 30.2829V30.2829L18.5621 30.2755ZM19.8625 39.0197L19.9119 39.0123L19.9205 39.0697H19.8625V39.0197ZM19.4596 39.0197V39.0697H19.4264L19.4135 39.0391L19.4596 39.0197ZM8.57421 36.1963L8.61503 36.2252L8.61502 36.2252L8.57421 36.1963ZM7.44133 39.0195L7.49065 39.0277L7.4837 39.0695H7.44133V39.0195ZM4.79571 39.0195V39.0695H4.75259L4.74625 39.0269L4.79571 39.0195ZM4.01821 33.7918L3.96875 33.7991L3.96022 33.7418H4.01821V33.7918ZM7.12096 32.6387L7.08014 32.6098L7.08015 32.6098L7.12096 32.6387ZM7.70934 29.8628L7.65988 29.8701V29.8701L7.70934 29.8628ZM7.33246 27.3281L7.38191 27.3208L7.38192 27.3208L7.33246 27.3281ZM3.01696 26.3462V26.3962H2.96323L2.96709 26.3427L3.01696 26.3462ZM3.57608 24.686L3.53527 24.6571L3.53527 24.6571L3.57608 24.686ZM5.59134 23.6532L5.59133 23.6032H5.59134V23.6532ZM17.5773 23.6532V23.6032H17.6205L17.6268 23.6458L17.5773 23.6532ZM17.8083 25.2062L17.8578 25.1989V25.1989L17.8083 25.2062ZM18.9691 26.17L18.9589 26.1211L18.9691 26.17ZM19.782 24.7938L19.7325 24.8011V24.8011L19.782 24.7938ZM16.5968 3.37622L16.5474 3.38357L16.5389 3.32622L16.5968 3.32622V3.37622ZM52.6846 3.37607V3.32607V3.37607ZM52.955 3.66167L53.0044 3.6543L53.0044 3.65431L52.955 3.66167ZM56.159 25.2062L56.2084 25.1989L56.2085 25.1989L56.159 25.2062ZM57.3197 26.17L57.3095 26.1211L57.3095 26.1211L57.3197 26.17ZM58.1326 24.7938L58.1821 24.7864L58.1821 24.7864L58.1326 24.7938ZM54.9287 3.24921L54.9782 3.24185L54.9782 3.24185L54.9287 3.24921ZM15.008 1.78876L14.9672 1.75988V1.75988L15.008 1.78876ZM14.6041 3.66167L14.5546 3.66903V3.66902L14.6041 3.66167ZM14.9622 6.06931L15.0117 6.06195L15.0202 6.11931H14.9622V6.06931ZM4.75046 7.58681L4.79128 7.6157L4.79127 7.6157L4.75046 7.58681ZM3.97733 11.2658L3.92788 11.2731V11.2731L3.97733 11.2658ZM4.16583 12.5331L4.11638 12.5405L4.11637 12.5405L4.16583 12.5331ZM5.14309 13.5145L5.14365 13.4645L5.19625 13.4651L5.19299 13.5176L5.14309 13.5145ZM17.2231 21.2761L17.2726 21.2687L17.2811 21.3261H17.2231V21.2761ZM16.0688 13.5137V13.4637H16.1119L16.1182 13.5063L16.0688 13.5137ZM6.66939 21.2761V21.3261H6.61618L6.61948 21.273L6.66939 21.2761ZM7.15176 13.5137L7.10186 13.5106L7.10477 13.4637H7.15176V13.5137ZM5.99356 11.1354V11.1854H5.95045L5.9441 11.1427L5.99356 11.1354ZM5.95106 10.85L6.00051 10.8427V10.8427L5.95106 10.85ZM15.7161 11.1354L15.7655 11.128L15.7741 11.1854H15.7161V11.1354ZM15.3156 8.44336V8.39336H15.3587L15.365 8.436L15.3156 8.44336ZM6.2858 9.11166L6.32662 9.14054L6.32661 9.14055L6.2858 9.11166ZM42.4097 41.2643L42.4591 41.2569L42.4097 41.2643ZM43.1136 37.7194L43.1544 37.7483L43.1544 37.7483L43.1136 37.7194ZM51.1248 41.677L51.0754 41.6844L51.1248 41.677ZM50.4209 45.222L50.4618 45.2509L50.4618 45.2509L50.4209 45.222ZM9.40554 41.2644L9.45499 41.2571L9.40554 41.2644ZM17.4168 45.222L17.4576 45.2509V45.2509L17.4168 45.222ZM18.1207 41.677L18.0712 41.6844L18.1207 41.677ZM10.1094 37.7194L10.1502 37.7483L10.1094 37.7194ZM3.66384 31.4184V31.4684H3.62073L3.61438 31.4258L3.66384 31.4184ZM4.96071 31.4184H5.01071V31.4684H4.96071V31.4184ZM3.26334 28.7266L3.21388 28.7339L3.20535 28.6766H3.26334V28.7266ZM5.50371 28.7266V28.6766H5.54682L5.55317 28.7192L5.50371 28.7266ZM5.73471 30.2787L5.68526 30.2861V30.2861L5.73471 30.2787ZM5.58471 31.1143L5.62553 31.1431L5.62551 31.1432L5.58471 31.1143ZM4.96071 31.4183H4.91071V31.3683H4.96071V31.4183ZM2.00002 23.1301C2.67213 22.1804 3.5902 21.5617 4.64362 21.3305L4.66506 21.4282C3.63748 21.6537 2.74028 22.2572 2.08164 23.1879L2.00002 23.1301ZM1.0335 27.7481C0.776169 26.0172 1.11795 24.3765 2.00002 23.1301L2.08164 23.1879C1.21671 24.4101 0.87825 26.0238 1.13242 27.7334L1.0335 27.7481ZM2.91825 40.4214L1.0335 27.7481L1.13242 27.7334L3.01717 40.4067L2.91825 40.4214ZM3.95458 41.4459C3.43742 41.4459 3.00544 41.0073 2.91826 40.4214L3.01717 40.4067C3.09898 40.9565 3.499 41.3459 3.95458 41.3459V41.4459ZM7.39521 41.4459H3.95458V41.3459H7.39521V41.4459ZM7.34713 41.415L7.34556 41.4018L7.44486 41.39L7.44643 41.4033L7.34713 41.415ZM7.38225 41.6886C7.36866 41.5967 7.35783 41.5054 7.34713 41.415L7.44643 41.4032C7.45717 41.4938 7.46782 41.5837 7.48117 41.674L7.38225 41.6886ZM14.7052 49.0499C11.2635 49.0499 7.98498 45.7418 7.38225 41.6887L7.48117 41.674C8.07869 45.692 11.326 48.9499 14.7052 48.9499V49.0499ZM18.9927 46.7828C17.9587 48.2439 16.4356 49.0499 14.7052 49.0499V48.9499C16.4018 48.9499 17.895 48.1608 18.911 46.725L18.9927 46.7828ZM20.1599 41.3894C20.4331 43.4151 20.0231 45.327 18.9927 46.7828L18.911 46.725C19.9246 45.2931 20.3311 43.4076 20.0608 41.4027L20.1599 41.3894ZM40.4017 41.446H20.1103V41.346H40.4017V41.446ZM40.3536 41.415L40.3521 41.4019L40.4514 41.3902L40.4529 41.4032L40.3536 41.415ZM40.3537 41.4154L40.3537 41.4153L40.4529 41.4029L40.4529 41.403L40.3537 41.4154ZM40.3537 41.4155L40.3537 41.4154L40.4529 41.403L40.4529 41.4031L40.3537 41.4155ZM40.3537 41.4156L40.3537 41.4155L40.4529 41.4031L40.4529 41.4032L40.3537 41.4156ZM40.3888 41.6888C40.3752 41.5969 40.3644 41.5056 40.3537 41.4153L40.453 41.4035C40.4637 41.494 40.4744 41.5839 40.4877 41.6742L40.3888 41.6888ZM47.7117 49.05C44.27 49.05 40.9915 45.7419 40.3888 41.6888L40.4877 41.6741C41.0852 45.6922 44.3325 48.95 47.7117 48.95V49.05ZM51.9992 46.7829C50.9652 48.2441 49.4421 49.05 47.7117 49.05V48.95C49.4083 48.95 50.9015 48.1609 51.9176 46.7252L51.9992 46.7829ZM53.1664 41.3895C53.4395 43.4154 53.0295 45.3273 51.9992 46.7829L51.9176 46.7252C52.931 45.2934 53.3375 43.4079 53.0673 41.4029L53.1664 41.3895ZM58.3386 41.4462H53.1169V41.3462H58.3386V41.4462ZM59.8428 40.6363C59.4794 41.1497 58.9313 41.4462 58.3386 41.4462V41.3462C58.8964 41.3462 59.4151 41.0676 59.7612 40.5785L59.8428 40.6363ZM60.2553 38.7272C60.3586 39.4222 60.2094 40.1183 59.8428 40.6363L59.7612 40.5785C60.1111 40.084 60.2564 39.4145 60.1564 38.7419L60.2553 38.7272ZM59.8972 36.3195L60.2553 38.7272L60.1564 38.7419L59.7983 36.3342L59.8972 36.3195ZM63.9979 36.3769H59.8477V36.2769H63.9979V36.3769ZM65.05 35.1387C65.05 35.8141 64.5866 36.3769 63.9979 36.3769V36.2769C64.5161 36.2769 64.95 35.7755 64.95 35.1387H65.05ZM63.9979 33.9005C64.5865 33.9005 65.05 34.4631 65.05 35.1387H64.95C64.95 34.5017 64.516 34.0005 63.9979 34.0005V33.9005ZM53.3092 33.9005H63.9979V34.0005H53.3092V33.9005ZM52.2571 35.1387C52.2571 34.4633 52.7205 33.9005 53.3092 33.9005V34.0005C52.791 34.0005 52.3571 34.5019 52.3571 35.1387H52.2571ZM53.3092 36.3769C52.7206 36.3769 52.2571 35.8143 52.2571 35.1387H52.3571C52.3571 35.7757 52.7911 36.2769 53.3092 36.2769V36.3769ZM57.8129 36.3769H53.3092V36.2769H57.8129V36.3769ZM58.1639 39.0272L57.7634 36.3342L57.8623 36.3195L58.2628 39.0125L58.1639 39.0272ZM52.4661 38.97L58.2134 38.9698L58.2134 39.0698L52.4661 39.07L52.4661 38.97ZM45.8272 33.9007C48.6003 33.9007 51.2659 36.0497 52.5122 39.0005L52.4201 39.0394C51.1846 36.1141 48.5489 34.0007 45.8272 34.0007V33.9007ZM41.5398 36.1677C42.5738 34.7066 44.0968 33.9007 45.8272 33.9007V34.0007C44.1306 34.0007 42.6374 34.7897 41.6214 36.2255L41.5398 36.1677ZM40.3984 39.0116C40.5737 37.9592 40.9574 36.9905 41.5398 36.1677L41.6214 36.2255C41.0485 37.0348 40.6701 37.9892 40.4971 39.028L40.3984 39.0116ZM21.8975 38.9698H40.4477V39.0698H21.8975V38.9698ZM20.5852 29.8557L21.9469 39.0125L21.848 39.0272L20.4863 29.8704L20.5852 29.8557ZM19.3647 28.8503C19.9453 28.7287 20.4862 29.1894 20.5852 29.8557L20.4863 29.8704C20.3932 29.2441 19.8941 28.8416 19.3852 28.9482L19.3647 28.8503ZM18.5126 30.2829C18.4138 29.6176 18.7872 28.9709 19.3647 28.8503L19.3852 28.9482C18.8725 29.0553 18.5184 29.6411 18.6115 30.2682L18.5126 30.2829ZM19.813 39.027L18.5126 30.2829L18.6115 30.2682L19.9119 39.0123L19.813 39.027ZM19.4596 38.9697H19.8625V39.0697H19.4596V38.9697ZM12.8207 33.9004C15.5938 33.9004 18.2594 36.0494 19.5057 39.0002L19.4135 39.0391C18.1781 36.1138 15.5424 34.0004 12.8207 34.0004V33.9004ZM8.53339 36.1674C9.56725 34.7063 11.0904 33.9004 12.8207 33.9004V34.0004C11.1242 34.0004 9.63092 34.7894 8.61503 36.2252L8.53339 36.1674ZM7.39201 39.0113C7.56726 37.9589 7.95103 36.99 8.5334 36.1674L8.61502 36.2252C8.04214 37.0344 7.66365 37.9889 7.49065 39.0277L7.39201 39.0113ZM4.79571 38.9695H7.44133V39.0695H4.79571V38.9695ZM4.06767 33.7844L4.84517 39.0122L4.74625 39.0269L3.96875 33.7991L4.06767 33.7844ZM4.96171 33.8418H4.01821V33.7418H4.96171V33.8418ZM7.16178 32.6676C6.63447 33.4129 5.83252 33.8418 4.96171 33.8418V33.7418C5.79815 33.7418 6.57045 33.3303 7.08014 32.6098L7.16178 32.6676ZM7.7588 29.8554C7.91229 30.8875 7.69598 31.9127 7.16177 32.6676L7.08015 32.6098C7.59744 31.8788 7.81014 30.8804 7.65988 29.8701L7.7588 29.8554ZM7.38192 27.3208L7.7588 29.8554L7.65988 29.8701L7.283 27.3355L7.38192 27.3208ZM6.34558 26.2962C6.86274 26.2962 7.29473 26.7348 7.38191 27.3208L7.283 27.3355C7.20119 26.7856 6.80117 26.3962 6.34558 26.3962V26.2962ZM3.01696 26.2962H6.34558V26.3962H3.01696V26.2962ZM3.6169 24.7149C3.29857 25.1648 3.11178 25.7263 3.06683 26.3498L2.96709 26.3427C3.01314 25.7038 3.20485 25.1241 3.53527 24.6571L3.6169 24.7149ZM5.59134 23.7032C4.77902 23.7033 4.07873 24.0625 3.61689 24.7149L3.53527 24.6571C4.01619 23.9778 4.74715 23.6033 5.59133 23.6032L5.59134 23.7032ZM5.59271 23.7032H5.59134V23.6032H5.59271V23.7032ZM5.59408 23.7032H5.59271V23.6032H5.59408V23.7032ZM17.5773 23.7032H5.59408V23.6032H17.5773V23.7032ZM17.7589 25.2136L17.5279 23.6605L17.6268 23.6458L17.8578 25.1989L17.7589 25.2136ZM18.9793 26.219C18.3991 26.3401 17.8579 25.8798 17.7589 25.2136L17.8578 25.1989C17.9508 25.825 18.4503 26.2273 18.9589 26.1211L18.9793 26.219ZM19.8314 24.7864C19.9304 25.4517 19.5568 26.0984 18.9793 26.219L18.9589 26.1211C19.4716 26.014 19.8258 25.4282 19.7325 24.8011L19.8314 24.7864ZM16.6463 3.36887L19.8314 24.7864L19.7325 24.8011L16.5474 3.38357L16.6463 3.36887ZM52.6846 3.42607L16.5968 3.42622V3.32622L52.6846 3.32607V3.42607ZM52.9055 3.66903C52.897 3.61187 52.8603 3.54968 52.812 3.50083C52.7883 3.47681 52.7632 3.45748 52.7397 3.44443C52.7157 3.43101 52.6968 3.42607 52.6846 3.42607V3.32607C52.7201 3.32607 52.7562 3.3391 52.7884 3.35707C52.8213 3.37541 52.8539 3.40088 52.8832 3.43053C52.941 3.48902 52.9918 3.56963 53.0044 3.6543L52.9055 3.66903ZM56.1095 25.2136L52.9055 3.66902L53.0044 3.65431L56.2084 25.1989L56.1095 25.2136ZM57.1446 26.2383C56.6371 26.2383 56.1979 25.8085 56.1095 25.2136L56.2085 25.1989C56.2913 25.7567 56.6979 26.1383 57.1446 26.1383V26.2383ZM57.33 26.219C57.2679 26.232 57.2059 26.2383 57.1446 26.2383V26.1383C57.1991 26.1383 57.2541 26.1327 57.3095 26.1211L57.33 26.219ZM58.1821 24.7864C58.2809 25.4517 57.9074 26.0984 57.33 26.219L57.3095 26.1211C57.8221 26.014 58.1763 25.4282 58.0832 24.8011L58.1821 24.7864ZM54.9782 3.24185L58.1821 24.7864L58.0832 24.8011L54.8793 3.25656L54.9782 3.24185ZM52.6845 0.95C53.7864 0.95 54.7879 1.96275 54.9782 3.24185L54.8793 3.25656C54.6943 2.01287 53.7243 1.05 52.6845 1.05V0.95ZM16.4713 0.95H52.6845V1.05H16.4713V0.95ZM14.9672 1.75988C15.3305 1.24645 15.8786 0.95 16.4713 0.95V1.05C15.9136 1.05 15.3949 1.3286 15.0488 1.81765L14.9672 1.75988ZM14.5546 3.66902C14.4514 2.97403 14.6006 2.27792 14.9672 1.75988L15.0488 1.81764C14.6988 2.31217 14.5536 2.98164 14.6535 3.65432L14.5546 3.66902ZM14.9128 6.07666L14.5546 3.66903L14.6535 3.65431L15.0117 6.06195L14.9128 6.07666ZM7.60546 6.01931H14.9622V6.11931H7.60546V6.01931ZM4.70965 7.55793C5.41103 6.5669 6.43979 6.01931 7.60546 6.01931V6.11931C6.47389 6.11931 5.47489 6.64978 4.79128 7.6157L4.70965 7.55793ZM3.92788 11.2731C3.72428 9.9039 4.00775 8.54948 4.70965 7.55792L4.79127 7.6157C4.10643 8.58316 3.82639 9.91071 4.02679 11.2584L3.92788 11.2731ZM4.11637 12.5405L3.92788 11.2731L4.02679 11.2584L4.21529 12.5258L4.11637 12.5405ZM5.14252 13.5645C4.62997 13.5587 4.20306 13.1227 4.11638 12.5405L4.21529 12.5257C4.29661 13.072 4.69195 13.4594 5.14365 13.4645L5.14252 13.5645ZM4.60443 21.3763L5.09318 13.5114L5.19299 13.5176L4.70424 21.3825L4.60443 21.3763ZM17.1737 21.2834L16.0193 13.521L16.1182 13.5063L17.2726 21.2687L17.1737 21.2834ZM6.66939 21.2261H17.2231V21.3261H6.66939V21.2261ZM7.20167 13.5168L6.71929 21.2792L6.61948 21.273L7.10186 13.5106L7.20167 13.5168ZM16.0688 13.5637H7.15176V13.4637H16.0688V13.5637ZM5.9441 11.1427L5.9016 10.8574L6.00051 10.8427L6.04301 11.128L5.9441 11.1427ZM15.7161 11.1854H5.99356V11.0854H15.7161V11.1854ZM15.365 8.436L15.7655 11.128L15.6666 11.1427L15.2661 8.45072L15.365 8.436ZM7.60543 8.39336H15.3156V8.49336H7.60543V8.39336ZM6.24499 9.08277C6.55974 8.63804 7.04399 8.39336 7.60543 8.39336V8.49336C7.07512 8.49336 6.62187 8.72335 6.32662 9.14054L6.24499 9.08277ZM5.9016 10.8574C5.79969 10.1733 5.91958 9.54223 6.245 9.08276L6.32661 9.14055C6.01953 9.57412 5.90142 10.1775 6.00051 10.8427L5.9016 10.8574ZM42.4591 41.2569C42.8956 44.1923 45.2577 46.569 47.7096 46.569V46.669C45.1949 46.669 42.8018 44.2417 42.3602 41.2716L42.4591 41.2569ZM43.1544 37.7483C42.5073 38.6624 42.2585 39.9077 42.4591 41.2569L42.3602 41.2716C42.1566 39.9026 42.4078 38.6299 43.0728 37.6905L43.1544 37.7483ZM45.8249 36.3723C44.7303 36.3723 43.7826 36.8607 43.1544 37.7483L43.0728 37.6905C43.7198 36.7762 44.6981 36.2723 45.8249 36.2723V36.3723ZM51.0754 41.6844C50.6388 38.749 48.2768 36.3723 45.8249 36.3723V36.2723C48.3396 36.2723 50.7326 38.6996 51.1743 41.6697L51.0754 41.6844ZM50.3801 45.1931C51.0272 44.2787 51.276 43.0335 51.0754 41.6844L51.1743 41.6697C51.3779 43.0386 51.1267 44.3112 50.4618 45.2509L50.3801 45.1931ZM47.7096 46.569C48.8042 46.569 49.752 46.0806 50.3801 45.1931L50.4618 45.2509C49.8147 46.1651 48.8364 46.669 47.7096 46.669V46.569ZM14.7054 46.6692C12.1908 46.6692 9.79778 44.2418 9.35608 41.2718L9.45499 41.2571C9.89154 44.1925 12.2536 46.5692 14.7054 46.5692V46.6692ZM17.4576 45.2509C16.8105 46.1652 15.8323 46.6692 14.7054 46.6692V46.5692C15.8001 46.5692 16.7478 46.0807 17.376 45.1931L17.4576 45.2509ZM18.1701 41.6697C18.3737 43.0386 18.1226 44.3112 17.4576 45.2509L17.376 45.1931C18.023 44.2787 18.2719 43.0335 18.0712 41.6844L18.1701 41.6697ZM12.8208 36.2723C15.3354 36.2723 17.7285 38.6996 18.1701 41.6697L18.0712 41.6844C17.6348 38.749 15.2726 36.3723 12.8208 36.3723V36.2723ZM10.0686 37.6905C10.7157 36.7762 11.6941 36.2723 12.8208 36.2723V36.3723C11.7263 36.3723 10.7784 36.8607 10.1502 37.7483L10.0686 37.6905ZM9.35608 41.2718C9.15248 39.9028 9.40365 38.6301 10.0686 37.6905L10.1502 37.7483C9.50318 38.6626 9.25434 39.9079 9.45499 41.2571L9.35608 41.2718ZM3.66384 31.3684H4.96071V31.4684H3.66384V31.3684ZM3.31279 28.7192L3.71329 31.4111L3.61438 31.4258L3.21388 28.7339L3.31279 28.7192ZM5.50371 28.7766H3.26334V28.6766H5.50371V28.7766ZM5.68526 30.2861L5.45426 28.7339L5.55317 28.7192L5.78417 30.2714L5.68526 30.2861ZM5.5439 31.0854C5.68041 30.8925 5.7335 30.6099 5.68526 30.2861L5.78417 30.2713C5.83493 30.6121 5.78127 30.923 5.62553 31.1431L5.5439 31.0854ZM4.96071 31.3683C5.2137 31.3683 5.41342 31.2695 5.54391 31.0854L5.62551 31.1432C5.47425 31.3566 5.24248 31.4683 4.96071 31.4683V31.3683ZM4.91071 31.4184V31.4183H5.01071V31.4184H4.91071Z" fill="white"/>
<path d="M45.1175 39.8063C45.4722 39.3051 46.0056 39.0176 46.581 39.0176C47.6519 39.0176 48.6376 40.0054 48.8252 41.2668C48.9269 41.9506 48.7796 42.6334 48.4214 43.1397C48.0666 43.6409 47.5332 43.9285 46.958 43.9285C45.8871 43.9285 44.9014 42.9405 44.7137 41.6794C44.612 40.9954 44.7591 40.3128 45.1175 39.8063Z" fill="#092474" stroke="white" stroke-width="0.1"/>
<path d="M12.1104 39.8063C12.4653 39.3051 12.9986 39.0176 13.5738 39.0176C14.6446 39.0176 15.6304 40.0054 15.8179 41.2666C15.9195 41.9506 15.7725 42.6333 15.4141 43.1397C15.0594 43.6409 14.526 43.9285 13.9508 43.9285C12.8799 43.9285 11.8941 42.9405 11.7065 41.6794C11.6048 40.9954 11.752 40.3128 12.1104 39.8063Z" fill="#092474" stroke="white" stroke-width="0.1"/>
<path d="M24.5786 33.9512H37.2764C37.8298 33.9512 38.2786 34.4829 38.2786 35.1389C38.2786 35.7947 37.8299 36.3266 37.2764 36.3266H24.5786C24.0252 36.3266 23.5764 35.7949 23.5764 35.1389C23.5766 34.4829 24.0252 33.9512 24.5786 33.9512Z" fill="#092474" stroke="white" stroke-width="0.1"/>
<path d="M42.6198 28.8809H61.1055C61.6589 28.8809 62.1077 29.4126 62.1077 30.0686C62.1077 30.7244 61.6592 31.2563 61.1055 31.2563H42.6198C42.0664 31.2563 41.6177 30.7246 41.6177 30.0686C41.6177 29.4126 42.0663 28.8809 42.6198 28.8809Z" fill="#092474" stroke="white" stroke-width="0.1"/>
<path d="M23.4855 24.1009L27.1955 20.299C27.6143 19.87 28.247 19.9244 28.609 20.4209C28.971 20.9174 28.9249 21.6677 28.5061 22.0969L26.8326 23.8119H52.2418C52.7951 23.8119 53.2439 24.3438 53.2439 25.0001C53.2439 25.6562 52.7953 26.1883 52.2418 26.1883H27.4681L29.535 27.8118C29.9965 28.174 30.1226 28.9113 29.817 29.4584C29.6243 29.8035 29.3055 29.9904 28.9808 29.9904C28.7908 29.9904 28.5985 29.9264 28.4283 29.7926L23.5874 25.9906C23.3259 25.7855 23.1607 25.447 23.1407 25.0758C23.1207 24.7046 23.2482 24.3438 23.4855 24.1009Z" fill="#092474" stroke="white" stroke-width="0.1"/>
</svg>
