<svg width="40" height="52" viewBox="0 0 40 52" fill="none" xmlns="http://www.w3.org/2000/svg">
<path d="M20.7893 9.55176H17.3152C16.8656 9.55176 16.501 9.91627 16.501 10.366C16.501 10.8157 16.8655 11.1802 17.3152 11.1802H20.7893C21.2389 11.1802 21.6035 10.8157 21.6035 10.366C21.6035 9.91627 21.239 9.55176 20.7893 9.55176Z" fill="#092474"/>
<path d="M13.8415 9.55176H8.63064C8.18102 9.55176 7.81641 9.91627 7.81641 10.366C7.81641 10.8157 8.18092 11.1802 8.63064 11.1802H13.8415C14.2911 11.1802 14.6558 10.8157 14.6558 10.366C14.6558 9.91627 14.2911 9.55176 13.8415 9.55176Z" fill="#092474"/>
<path d="M20.7889 6.07617H19.0518C18.6022 6.07617 18.2375 6.44068 18.2375 6.8904C18.2375 7.34012 18.6021 7.70463 19.0518 7.70463H20.7889C21.2385 7.70463 21.6031 7.34012 21.6031 6.8904C21.6031 6.44068 21.2386 6.07617 20.7889 6.07617Z" fill="#092474"/>
<path d="M15.5785 6.07617H13.8421C13.3924 6.07617 13.0278 6.44068 13.0278 6.8904C13.0278 7.34012 13.3923 7.70463 13.8421 7.70463H15.5785C16.0281 7.70463 16.3927 7.34012 16.3927 6.8904C16.3927 6.44068 16.0282 6.07617 15.5785 6.07617Z" fill="#092474"/>
<path d="M10.3677 6.07617H8.63064C8.18102 6.07617 7.81641 6.44068 7.81641 6.8904C7.81641 7.34012 8.18092 7.70463 8.63064 7.70463H10.3677C10.8173 7.70463 11.1819 7.34012 11.1819 6.8904C11.1819 6.44068 10.8173 6.07617 10.3677 6.07617Z" fill="#092474"/>
<path fill-rule="evenodd" clip-rule="evenodd" d="M38.1587 22.5805H29.4196V11.236C29.4196 8.87152 27.4959 6.94792 25.1315 6.94792H25.0773V0.814231C25.0773 0.548643 24.9478 0.299814 24.7303 0.147368C24.5127 -0.0050775 24.2344 -0.0417417 23.9849 0.0491571L21.8747 0.816363L19.7646 0.0490555C19.585 -0.0162494 19.3878 -0.0162494 19.2082 0.0490555L17.0981 0.816363L14.988 0.0490555C14.8084 -0.0162494 14.6112 -0.0162494 14.4316 0.0490555L12.3215 0.816363L10.2114 0.0490555C10.0318 -0.0162494 9.83464 -0.0162494 9.65498 0.0490555L7.5449 0.816363L5.43473 0.0490555C5.18529 -0.0417417 4.90701 -0.0050775 4.68936 0.147267C4.47181 0.299713 4.34232 0.548643 4.34232 0.814129V6.94772H4.28809C1.9236 6.94772 0 8.87142 0 11.2358V47.7119C0 50.0764 1.9237 52 4.28809 52H25.1316C27.2177 52 28.9596 50.5025 29.3412 48.526H38.1588C39.0867 48.526 39.8415 47.7712 39.8415 46.8433V24.2629C39.8414 23.3353 39.0866 22.5805 38.1587 22.5805ZM5.9707 1.97975L7.26654 2.4509C7.44621 2.51621 7.64334 2.51621 7.82301 2.4509L9.93308 1.68359L12.0431 2.4509C12.2228 2.51621 12.4199 2.51621 12.5996 2.4509L14.7097 1.68359L16.8198 2.4509C16.9994 2.51621 17.1966 2.51621 17.3762 2.4509L19.4863 1.68359L21.5964 2.4509C21.776 2.51621 21.9732 2.51621 22.1528 2.4509L23.4487 1.97975V13.0303H5.9707V1.97975ZM25.1317 50.3698C26.5983 50.3698 27.7914 49.1766 27.7914 47.7101V11.2339C27.7914 9.76738 26.5983 8.57422 25.1317 8.57422H25.0775V13.0252H25.1317C25.5814 13.0252 25.9459 13.3897 25.9459 13.8394C25.9459 14.2892 25.5813 14.6537 25.1317 14.6537H4.28815C3.83843 14.6537 3.47392 14.2892 3.47392 13.8394C3.47392 13.3897 3.83853 13.0252 4.28815 13.0252H4.34238V8.57422H4.28815C2.82158 8.57422 1.62842 9.76738 1.62842 11.2339V47.7101C1.62842 49.1766 2.82158 50.3698 4.28815 50.3698H25.1317ZM31.2653 46.901H29.4198V24.2121H31.2653V46.901ZM38.1588 46.901C38.1887 46.901 38.213 46.8766 38.213 46.8468V24.2663C38.213 24.2365 38.1887 24.2121 38.1588 24.2121H36.3675V26.8715C36.3675 27.3212 36.0029 27.6857 35.5533 27.6857C35.1036 27.6857 34.7391 27.3211 34.7391 26.8715V24.2121H32.8936V46.901H34.7391V30.3456C34.7391 29.8957 35.1037 29.5313 35.5533 29.5313C36.003 29.5313 36.3675 29.8958 36.3675 30.3456V46.901H38.1588Z" fill="#092474"/>
<path fill-rule="evenodd" clip-rule="evenodd" d="M14.2758 29.5234H15.1442C16.551 29.5234 17.6954 30.6679 17.6954 32.0746C17.6954 33.4813 16.551 34.6258 15.1442 34.6258H14.2758C12.869 34.6258 11.7246 33.4813 11.7246 32.0746C11.7246 30.6678 12.869 29.5234 14.2758 29.5234ZM14.2758 32.9989H15.1443C15.6531 32.9989 16.067 32.585 16.0671 32.0761C16.0671 31.5673 15.6531 31.1533 15.1443 31.1533H14.2758C13.767 31.1533 13.353 31.5673 13.353 32.0761C13.353 32.585 13.767 32.9989 14.2758 32.9989Z" fill="#092474"/>
<path fill-rule="evenodd" clip-rule="evenodd" d="M14.2758 36.4795H15.1442C16.551 36.4795 17.6954 37.624 17.6954 39.0307C17.6954 40.4374 16.551 41.5818 15.1442 41.5818H14.2758C12.869 41.5818 11.7246 40.4374 11.7246 39.0307C11.7246 37.6239 12.869 36.4795 14.2758 36.4795ZM14.2758 39.955H15.1443C15.6531 39.955 16.067 39.541 16.0671 39.0322C16.0671 38.5233 15.6531 38.1094 15.1443 38.1094H14.2758C13.767 38.1094 13.353 38.5233 13.353 39.0322C13.353 39.541 13.767 39.955 14.2758 39.955Z" fill="#092474"/>
<path fill-rule="evenodd" clip-rule="evenodd" d="M14.2758 43.4238H15.1442C16.551 43.4238 17.6954 44.5682 17.6954 45.975C17.6954 47.3817 16.551 48.5261 15.1442 48.5261H14.2758C12.869 48.5261 11.7246 47.3817 11.7246 45.975C11.7246 44.5682 12.869 43.4238 14.2758 43.4238ZM14.2758 46.8993H15.1443C15.6531 46.8993 16.067 46.4854 16.0671 45.9765C16.0671 45.4677 15.6531 45.0537 15.1443 45.0537H14.2758C13.767 45.0537 13.353 45.4677 13.353 45.9765C13.353 46.4853 13.767 46.8993 14.2758 46.8993Z" fill="#092474"/>
<path fill-rule="evenodd" clip-rule="evenodd" d="M22.0917 29.5234H22.9602C24.3669 29.5234 25.5113 30.6679 25.5113 32.0746C25.5113 33.4813 24.3669 34.6258 22.9602 34.6258H22.0917C20.6849 34.6258 19.5405 33.4813 19.5405 32.0746C19.5405 30.6678 20.6849 29.5234 22.0917 29.5234ZM22.092 32.9989H22.9605C23.4693 32.9989 23.8833 32.585 23.8833 32.0761C23.8833 31.5673 23.4693 31.1533 22.9605 31.1533H22.092C21.5832 31.1533 21.1692 31.5673 21.1692 32.0761C21.1692 32.585 21.5832 32.9989 22.092 32.9989Z" fill="#092474"/>
<path fill-rule="evenodd" clip-rule="evenodd" d="M22.0917 36.4795H22.9602C24.3669 36.4795 25.5113 37.624 25.5113 39.0307C25.5113 40.4374 24.3669 41.5818 22.9602 41.5818H22.0917C20.6849 41.5818 19.5405 40.4374 19.5405 39.0307C19.5405 37.6239 20.6849 36.4795 22.0917 36.4795ZM22.092 39.955H22.9605C23.4693 39.955 23.8833 39.541 23.8833 39.0322C23.8833 38.5233 23.4693 38.1094 22.9605 38.1094H22.092C21.5832 38.1094 21.1692 38.5233 21.1692 39.0322C21.1692 39.541 21.5832 39.955 22.092 39.955Z" fill="#092474"/>
<path fill-rule="evenodd" clip-rule="evenodd" d="M22.0917 43.4238H22.9602C24.3669 43.4238 25.5113 44.5682 25.5113 45.975C25.5113 47.3817 24.3669 48.5261 22.9602 48.5261H22.0917C20.6849 48.5261 19.5405 47.3817 19.5405 45.975C19.5405 44.5682 20.6849 43.4238 22.0917 43.4238ZM22.092 46.8993H22.9605C23.4693 46.8993 23.8833 46.4854 23.8833 45.9765C23.8833 45.4677 23.4693 45.0537 22.9605 45.0537H22.092C21.5832 45.0537 21.1692 45.4677 21.1692 45.9765C21.1692 46.4853 21.5832 46.8993 22.092 46.8993Z" fill="#092474"/>
<path fill-rule="evenodd" clip-rule="evenodd" d="M6.45936 29.5234H7.32783C8.73457 29.5234 9.87898 30.6679 9.87898 32.0746C9.87898 33.4813 8.73457 34.6258 7.32783 34.6258H6.45936C5.05261 34.6258 3.9082 33.4813 3.9082 32.0746C3.9082 30.6678 5.05261 29.5234 6.45936 29.5234ZM6.45942 32.9989H7.32789C7.83672 32.9989 8.25069 32.585 8.25069 32.0761C8.25069 31.5673 7.83672 31.1533 7.32789 31.1533H6.45942C5.95059 31.1533 5.53662 31.5673 5.53662 32.0761C5.53662 32.585 5.95059 32.9989 6.45942 32.9989Z" fill="#092474"/>
<path fill-rule="evenodd" clip-rule="evenodd" d="M6.45936 36.4795H7.32783C8.73457 36.4795 9.87898 37.624 9.87898 39.0307C9.87898 40.4374 8.73457 41.5818 7.32783 41.5818H6.45936C5.05261 41.5818 3.9082 40.4374 3.9082 39.0307C3.9082 37.6239 5.05261 36.4795 6.45936 36.4795ZM6.45942 39.955H7.32789C7.83672 39.955 8.25069 39.541 8.25069 39.0322C8.25069 38.5233 7.83672 38.1094 7.32789 38.1094H6.45942C5.95059 38.1094 5.53662 38.5233 5.53662 39.0322C5.53662 39.541 5.95059 39.955 6.45942 39.955Z" fill="#092474"/>
<path fill-rule="evenodd" clip-rule="evenodd" d="M6.45936 43.4238H7.32783C8.73457 43.4238 9.87898 44.5682 9.87898 45.975C9.87898 47.3817 8.73457 48.5261 7.32783 48.5261H6.45936C5.05261 48.5261 3.9082 47.3817 3.9082 45.975C3.9082 44.5682 5.05261 43.4238 6.45936 43.4238ZM6.45942 46.8993H7.32789C7.83672 46.8993 8.25069 46.4854 8.25069 45.9765C8.25069 45.4677 7.83672 45.0537 7.32789 45.0537H6.45942C5.95059 45.0537 5.53662 45.4677 5.53662 45.9765C5.53662 46.4853 5.95059 46.8993 6.45942 46.8993Z" fill="#092474"/>
<path fill-rule="evenodd" clip-rule="evenodd" d="M5.15682 16.498H24.2633C25.1912 16.498 25.946 17.2529 25.946 18.1807V25.997C25.946 26.9249 25.1912 27.6797 24.2633 27.6797H5.15682C4.22894 27.6797 3.47412 26.9249 3.47412 25.997V18.1807C3.47412 17.2529 4.22894 16.498 5.15682 16.498ZM24.2633 26.0527C24.2933 26.0527 24.3175 26.0283 24.3175 25.9984V18.1822C24.3175 18.1523 24.2933 18.1279 24.2633 18.1279H5.15677C5.12681 18.1279 5.10254 18.1523 5.10254 18.1822V25.9984C5.10254 26.0283 5.12681 26.0527 5.15677 26.0527H24.2633Z" fill="#092474"/>
</svg>
