<svg width="57" height="56" viewBox="0 0 57 56" fill="none" xmlns="http://www.w3.org/2000/svg">
<path fill-rule="evenodd" clip-rule="evenodd" d="M43.4951 13.3106C43.9898 13.3106 44.3909 13.7099 44.3909 14.2024H44.3912V19.9094C44.3912 21.4501 43.1321 22.7036 41.5844 22.7036H35.3621C34.1131 22.7036 33.0327 21.9034 32.6738 20.7124L30.42 13.2341C30.4123 13.2087 30.3893 13.1917 30.3628 13.1917H29.1626C28.6679 13.1917 28.2668 12.7925 28.2668 12.3C28.2668 11.8074 28.6679 11.4082 29.1626 11.4082H30.3628C31.1866 11.4082 31.8992 11.9361 32.1359 12.7216L32.3134 13.3106H43.4951ZM41.5838 20.9258C42.1436 20.9258 42.599 20.4724 42.599 19.9151V15.0997H32.8505L34.3891 20.2055C34.5189 20.6364 34.9098 20.9258 35.3616 20.9258H41.5838Z" fill="#092474"/>
<path d="M32.9846 23.7793C31.9637 23.7793 31.1333 24.606 31.1333 25.6222C31.1333 26.6384 31.9637 27.4651 32.9846 27.4651C34.0054 27.4651 34.8358 26.6384 34.8358 25.6222C34.8358 24.606 34.0054 23.7793 32.9846 23.7793Z" fill="#092474"/>
<path d="M42.5397 23.7793C41.5189 23.7793 40.6885 24.606 40.6885 25.6222C40.6885 26.6384 41.5189 27.4651 42.5397 27.4651C43.5606 27.4651 44.391 26.6384 44.391 25.6222C44.391 24.606 43.5606 23.7793 42.5397 23.7793Z" fill="#092474"/>
<path fill-rule="evenodd" clip-rule="evenodd" d="M37.2049 0C26.7004 0 18.1546 8.50735 18.1546 18.9645C18.1546 23.8729 20.0376 28.3517 23.1221 31.7228L19.8899 34.9404L19.172 34.2257C18.4503 33.5073 17.2758 33.5073 16.554 34.2257L1.10192 49.608C0.391259 50.3155 0 51.2559 0 52.2564C0 53.2569 0.391259 54.1973 1.10192 54.9048C1.83544 55.635 2.79892 56 3.76229 56C4.72566 56 5.68913 55.635 6.42265 54.9048L21.8747 39.5224C22.5963 38.8039 22.5963 37.6347 21.8747 36.9161L21.1569 36.2015L24.389 32.9839C27.7754 36.0545 32.2744 37.929 37.2051 37.929C47.7096 37.929 56.2554 29.4217 56.2554 18.9646C56.2554 8.50745 47.7093 0 37.2049 0ZM20.6075 38.2568L5.15558 53.6391C4.38713 54.4039 3.13699 54.4038 2.36853 53.6391C1.99639 53.2685 1.79126 52.7758 1.79126 52.2518C1.79126 51.7278 1.99617 51.2351 2.36853 50.8646L17.8205 35.4822C17.8322 35.4705 17.8475 35.4648 17.8628 35.4648C17.878 35.4648 17.8933 35.4706 17.9051 35.4822L20.6076 38.1726C20.6308 38.1958 20.6308 38.2335 20.6075 38.2568ZM19.9462 18.9584C19.9462 28.4321 27.6885 36.1395 37.205 36.1395C46.7216 36.1395 54.4637 28.432 54.4637 18.9584C54.4637 9.4848 46.7216 1.77734 37.205 1.77734C27.6885 1.77734 19.9462 9.48469 19.9462 18.9584Z" fill="#092474"/>
<path d="M49.3134 9.76997C49.0128 9.37872 48.4507 9.30423 48.0577 9.60338C47.6648 9.90264 47.5899 10.4623 47.8904 10.8535C51.9585 16.1488 51.4495 23.7027 46.7061 28.4246C41.9627 33.1467 34.3742 33.6533 29.0549 29.603C28.662 29.3037 28.0996 29.3782 27.7991 29.7695C27.4985 30.1606 27.5733 30.7204 27.9664 31.0196C30.6926 33.0955 33.9442 34.1155 37.1862 34.1155C41.1142 34.1155 45.0277 32.6176 47.973 29.6858C53.3486 24.3343 53.9249 15.7723 49.3134 9.76997Z" fill="#092474"/>
<path d="M46.443 6.9098C40.4134 2.31919 31.8127 2.89277 26.4372 8.24422C21.0613 13.5959 20.4852 22.158 25.0971 28.1605C25.2736 28.39 25.5399 28.5105 25.8092 28.5105C25.999 28.5105 26.1904 28.4507 26.3528 28.3271C26.7457 28.0279 26.8206 27.4681 26.52 27.077C22.4515 21.7817 22.9604 14.2275 27.7039 9.50535C32.4471 4.78338 40.0353 4.27663 45.3545 8.32647C45.7475 8.62573 46.3096 8.55103 46.6102 8.15989C46.9108 7.76875 46.8359 7.20906 46.443 6.9098Z" fill="#092474"/>
</svg>
