<svg width="39" height="50" viewBox="0 0 39 50" fill="none" xmlns="http://www.w3.org/2000/svg">
<path d="M28.6982 1H1V49H37.8536V10.1562L28.6982 1ZM28.9912 2.70723L36.1473 9.8633L28.9912 9.86296V2.70723ZM2.00011 48.0001V2.00009H27.9903V10.8631H36.8533V48.0006L2.00011 48.0001Z" fill="#092474" stroke="#092474" stroke-width="0.6"/>
<path d="M14.4345 22.6491C19.0596 22.6491 22.8225 18.8862 22.8225 14.2601C22.8225 9.63404 19.0595 5.87109 14.4345 5.87109C9.80847 5.87109 6.04517 9.63404 6.04517 14.2601C6.04482 18.8859 9.80838 22.6491 14.4345 22.6491ZM14.4345 6.87145C18.5086 6.87145 21.8226 10.1858 21.8226 14.2606C21.8226 18.3349 18.5086 21.6497 14.4345 21.6497C10.3602 21.6497 7.04508 18.3353 7.04508 14.2606C7.04473 10.1862 10.3595 6.87145 14.4345 6.87145Z" fill="#092474" stroke="#092474" stroke-width="0.6"/>
<path d="M13.5163 14.7614H13.9338V17.8941H13.2052V18.894H13.9338V19.7851H14.9337V18.894H15.3512C16.7662 18.894 17.9171 17.7424 17.9171 16.327C17.9171 14.9124 16.7661 13.7615 15.3512 13.7615H14.9337V10.6274H15.6623V9.62744H14.9337V8.73633H13.9338V9.62744H13.5163C12.1013 9.62744 10.9497 10.7791 10.9497 12.1944C10.9501 13.61 12.1013 14.7614 13.5163 14.7614ZM15.3516 14.7614C16.2151 14.7614 16.9176 15.4635 16.9176 16.327C16.9176 17.1909 16.2151 17.8941 15.3516 17.8941H14.9341V14.7614H15.3516ZM13.5163 10.6274H13.9338V13.7615H13.5163C12.6524 13.7615 11.95 13.0583 11.95 12.1944C11.95 11.3305 12.6524 10.6274 13.5163 10.6274Z" fill="#092474" stroke="#092474" stroke-width="0.6"/>
<path d="M6.54419 27.0137H32.1174V28.0136H6.54419V27.0137Z" fill="#092474" stroke="#092474" stroke-width="0.6"/>
<path d="M6.54419 32.3945H25.1335V33.3944H6.54419V32.3945Z" fill="#092474" stroke="#092474" stroke-width="0.6"/>
<path d="M6.54419 37.7617H28.4906V38.7616H6.54419V37.7617Z" fill="#092474" stroke="#092474" stroke-width="0.6"/>
<path d="M6.54419 43.1309H14.433V44.1308H6.54419V43.1309Z" fill="#092474" stroke="#092474" stroke-width="0.6"/>
</svg>
