<svg width="41" height="48" viewBox="0 0 41 48" fill="none" xmlns="http://www.w3.org/2000/svg">
<path fill-rule="evenodd" clip-rule="evenodd" d="M33.5352 32.7839V32.6449C33.5352 32.4471 33.4446 32.2616 33.2845 32.1278L25.6569 25.7598C24.1042 24.4634 24.0471 22.2923 25.5303 20.9348L33.3103 13.8142C33.4531 13.6834 33.5331 13.5106 33.5348 13.3306L33.5352 12.6139H24.2178C22.61 12.6139 21.2936 13.7643 21.2936 15.17V30.9376C21.2936 32.3434 22.61 33.4937 24.2178 33.4937H31.3113H32.7229H33.5352V32.7839ZM9.70759 33.4937H17.6799C19.1644 33.4937 20.3792 32.3645 20.3792 30.9851V15.1226C20.3792 13.7431 19.1644 12.6139 17.6799 12.6139H8.65851H8.56363H7.48362V13.694H7.67248C7.68095 13.6948 7.92619 13.6944 8.30061 13.694H8.56363C9.97106 13.6923 12.5505 13.6906 12.5505 13.6906C15.1281 13.6906 17.2373 15.6507 17.2373 18.0463V19.0009C17.2373 21.23 15.2742 23.0538 12.8757 23.0538H9.70759H7.85082H7.48362V33.4937H9.12609H9.70759ZM11.2599 11.6279H29.759C30.4582 11.6279 31.03 11.0561 31.03 10.3569C31.03 9.65803 30.4582 9.08625 29.759 9.08625H11.2599C10.5606 9.08625 9.98924 9.65803 9.98924 10.3569C9.98924 11.0561 10.5606 11.6279 11.2599 11.6279ZM28.0516 8.10024C28.6886 8.10024 29.21 7.57886 29.21 6.94185C29.21 6.30485 28.6886 5.78347 28.0516 5.78347H12.9672C12.3302 5.78347 11.8093 6.30485 11.8093 6.94185C11.8093 7.57886 12.3302 8.10024 12.9672 8.10024H28.0516ZM17.7494 3.37817C17.7435 3.4273 17.7397 3.47643 17.7397 3.52684C17.7397 4.22568 18.3119 4.79746 19.0107 4.79746H22.0086C22.7074 4.79746 23.2796 4.22568 23.2796 3.52684C23.2796 3.47643 23.2754 3.4273 23.2695 3.37817H33.1824C34.0435 3.37817 34.7478 2.67382 34.7478 1.81318V1.56499C34.7478 0.70435 34.0435 0 33.1824 0H7.83682C6.97534 0 6.271 0.70435 6.271 1.56499V1.81318C6.271 2.67382 6.97534 3.37817 7.83682 3.37817H17.7494ZM40.9998 17.7545C40.9998 17.1437 40.4352 16.6444 39.7465 16.6444H38.2485V29.4633H39.7465C40.4352 29.4633 40.9998 28.9639 40.9998 28.3532V17.7545ZM34.4861 23.8446V23.9966V33.4937H35.9838C36.6733 33.4937 37.2374 32.9939 37.2374 32.3836V23.9966V23.8446V13.724C37.2374 13.1133 36.6733 12.6139 35.9838 12.6139H34.4861V23.8446ZM2.77084 29.4633V16.6444H1.27323C0.583696 16.6444 0.0195312 17.1437 0.0195312 17.7545V28.3532C0.0195312 28.9639 0.583696 29.4633 1.27323 29.4633H2.77084ZM3.7814 23.9966V23.8446V13.724C3.7814 13.1133 4.3456 12.6139 5.03555 12.6139H6.53317V23.8446V23.9966V33.4937H5.03555C4.3456 33.4937 3.7814 32.9939 3.7814 32.3836V23.9966Z" fill="#1765FC"/>
<path fill-rule="evenodd" clip-rule="evenodd" d="M22.7144 44.4729C22.2089 44.475 21.8016 44.8744 21.8033 45.3676C21.805 45.8641 22.2174 46.269 22.7199 46.2669C23.222 46.2644 23.6289 45.8629 23.6289 45.3689C23.6289 44.8686 23.2232 44.4712 22.7144 44.4729ZM36.0515 44.4808C35.5426 44.48 35.1366 44.8736 35.1357 45.3689C35.1349 45.8658 35.5389 46.264 36.0405 46.2703C36.5117 46.2757 36.9621 45.8991 36.9617 45.3797C36.9613 44.8761 36.5633 44.4817 36.0515 44.4808ZM27.7439 45.3139C27.7409 45.8141 28.1483 46.2203 28.6542 46.2219C29.1545 46.224 29.5656 45.82 29.5686 45.3235C29.5711 44.8295 29.1596 44.4217 28.6579 44.4208C28.1559 44.4204 27.746 44.8207 27.7439 45.3139ZM23.7629 45.3622C23.7612 45.8616 24.1639 46.2628 24.671 46.2669C25.1727 46.2711 25.594 45.8604 25.5944 45.3676C25.5944 44.874 25.1846 44.4742 24.6766 44.4729C24.1699 44.4717 23.7646 44.8657 23.7629 45.3622ZM37.0949 45.3705C37.0962 45.9016 37.5357 46.2769 38.0187 46.2703C38.5204 46.2632 38.9243 45.8666 38.923 45.3705C38.9217 44.8711 38.5182 44.4796 38.0056 44.4808C37.4959 44.4821 37.0941 44.874 37.0949 45.3705ZM22.8138 47.0937C22.8126 47.5919 23.2148 47.9909 23.7194 47.9926C24.2236 47.9943 24.6343 47.5936 24.6377 47.0967C24.641 46.6018 24.2311 46.1932 23.7287 46.1907C23.2194 46.1882 22.8151 46.5872 22.8138 47.0937ZM36.142 47.0983C36.1428 47.5952 36.5497 47.9968 37.0556 47.9997C37.5547 48.0026 37.9684 47.5952 37.9688 47.1C37.9692 46.6039 37.5611 46.1978 37.0603 46.1965C36.5535 46.1949 36.1411 46.5997 36.142 47.0983ZM29.704 45.3235C29.7057 45.8233 30.1113 46.2232 30.6163 46.2219C31.123 46.2207 31.5341 45.8137 31.5324 45.3168C31.5307 44.8211 31.1201 44.4208 30.6134 44.4208C30.1075 44.4213 29.7031 44.8224 29.704 45.3235ZM4.67309 40.1118H6.68088V35.8619H4.67309V40.1118ZM15.4216 40.2734C15.4042 40.2734 15.3865 40.2755 15.3696 40.273C15.326 40.2672 15.312 40.2834 15.3133 40.3267C15.3162 40.4271 15.3141 40.5279 15.3141 40.6291V40.7391C15.4063 40.7391 15.4888 40.742 15.5708 40.7383C15.6212 40.7358 15.6339 40.7549 15.6331 40.8016C15.631 40.984 15.6289 41.1665 15.6339 41.3485C15.642 41.6663 15.4617 41.8533 15.1386 41.8546C14.9512 41.855 14.7639 41.8525 14.5765 41.8558C14.5211 41.8571 14.5105 41.8367 14.5122 41.7888C14.5155 41.7063 14.513 41.623 14.513 41.5363C14.3717 41.5363 14.2394 41.5393 14.107 41.5347C14.0516 41.533 14.0427 41.5522 14.0427 41.6009C14.0444 42.3473 14.0435 43.0938 14.0435 43.8402V43.8964H14.513C14.513 43.8102 14.516 43.7269 14.5122 43.644C14.51 43.5957 14.5257 43.5811 14.5752 43.5815C14.7554 43.5844 14.9365 43.5836 15.1175 43.5828C15.4745 43.5811 15.8319 43.5861 16.1888 43.5736C16.4697 43.564 16.7345 43.4832 16.962 43.3137C17.352 43.023 17.5166 42.6164 17.5314 42.1507C17.5453 41.703 17.5352 41.2544 17.5331 40.8057C17.5331 40.7516 17.5478 40.7349 17.6028 40.7383C17.6823 40.7428 17.7627 40.7391 17.8435 40.7391V40.2734H17.7932H15.4216ZM4.57539 40.2747C4.56059 40.2792 4.53944 40.2951 4.53901 40.3067C4.53689 40.4492 4.53771 40.5921 4.53771 40.7391C4.62822 40.7391 4.71074 40.742 4.7928 40.7383C4.84144 40.7362 4.85751 40.7508 4.85667 40.7999C4.85455 40.9865 4.85452 41.1727 4.85706 41.3597C4.86087 41.6713 4.68109 41.8533 4.36386 41.8546C4.1786 41.8554 3.9934 41.8517 3.80856 41.8562C3.74384 41.8579 3.73069 41.8358 3.73365 41.7792C3.73788 41.6992 3.7345 41.6188 3.7345 41.5413H3.26755V43.896H3.7345C3.7345 43.8094 3.73704 43.7261 3.73365 43.6428C3.73196 43.5936 3.75018 43.5815 3.79798 43.5819C4.04837 43.584 4.29919 43.584 4.54959 43.5828C4.83891 43.5811 5.12902 43.589 5.41791 43.5732C5.7842 43.5532 6.11118 43.4295 6.36454 43.1558C6.63016 42.868 6.74772 42.5198 6.75533 42.1382C6.76506 41.69 6.75791 41.2419 6.75664 40.7937C6.75622 40.752 6.76718 40.7366 6.81117 40.7383C6.89745 40.7416 6.98377 40.7391 7.07174 40.7391V40.2759C7.05187 40.2751 7.03495 40.2738 7.01845 40.2738C6.22369 40.2734 5.42847 40.2734 4.63371 40.2734C4.61383 40.2734 4.59273 40.2692 4.57539 40.2747ZM14.5067 36.0443C14.5342 35.9856 14.5595 35.926 14.5866 35.8657C14.5731 35.8623 14.5689 35.8602 14.5647 35.8602C13.8414 35.8602 13.118 35.8611 12.3948 35.8598C12.355 35.8594 12.3381 35.8748 12.3229 35.9077C12.1355 36.3093 11.9384 36.7071 11.7616 37.1132C11.5654 37.5626 11.4245 38.0287 11.3991 38.5227C11.3843 38.8101 11.4059 39.0913 11.5353 39.3558C11.6825 39.6549 11.9249 39.8544 12.2193 40.0018C12.4088 40.0964 12.6054 40.1368 12.8207 40.136C14.3713 40.131 15.9228 40.1335 17.4734 40.1335H17.5669C17.5512 39.8248 17.5529 39.5241 17.5157 39.2279C17.4802 38.9413 17.338 38.6981 17.0986 38.519C16.841 38.3265 16.5407 38.2595 16.229 38.2553C15.617 38.247 15.0045 38.2574 14.3929 38.2541C14.255 38.2532 14.1142 38.2411 13.9801 38.2103C13.7915 38.167 13.6823 38 13.7234 37.8288C13.7547 37.6988 13.794 37.568 13.8498 37.4464C14.0643 36.9774 14.2872 36.5113 14.5067 36.0443ZM1.44876 36.1339C1.21866 36.3576 1.12137 36.6417 1.12053 36.9486C1.11418 38.489 1.1172 40.0293 1.1172 41.5697V41.6421C0.986496 41.6538 0.862971 41.6601 0.741158 41.6767C0.445505 41.7167 0.223432 41.8629 0.0855426 42.1278C0.0407101 42.2128 0.0183094 42.2994 0.0195826 42.3973C0.0233864 42.7876 0.0212806 43.1783 0.0212806 43.5686V43.6382H3.13896V35.8844C2.75703 35.8844 2.38313 35.874 2.00922 35.8886C1.79732 35.8969 1.60356 35.9835 1.44876 36.1339ZM36.9426 43.6461V41.6605C36.9168 41.6605 36.8953 41.6605 36.8737 41.6609C36.4601 41.6638 36.0464 41.668 35.6332 41.6709C35.4479 41.6721 35.2626 41.6684 35.0774 41.6726C35.0148 41.6742 35.0025 41.6546 35.0025 41.5963C35.0042 39.7148 35.0037 37.8334 35.0037 35.9519V35.8969C34.6413 35.8969 34.2885 35.8911 33.9358 35.899C33.7395 35.9036 33.5564 35.9677 33.3973 36.0852C33.1368 36.2772 33.0314 36.5529 32.9921 36.8558C32.9731 37.0032 32.9845 37.1548 32.9849 37.3048C32.9883 38.1824 32.9921 39.0596 32.996 39.9369C33.0019 41.1535 33.0082 42.3698 33.0137 43.5861C33.0141 43.6086 33.0137 43.6311 33.0137 43.6461H36.9426ZM9.69538 35.8594C9.33797 35.8594 8.99159 35.8536 8.64518 35.8619C8.45654 35.8669 8.2772 35.9223 8.11901 36.0298C7.83858 36.2193 7.7273 36.503 7.68458 36.817C7.66428 36.962 7.67571 37.1119 7.67655 37.2594C7.67994 38.2166 7.6846 39.1729 7.68883 40.1297C7.69433 41.2714 7.7007 42.4127 7.7062 43.554C7.7062 43.5744 7.70787 43.5953 7.70914 43.6182H13.9052V41.6338H9.69538V35.8594ZM32.1221 38.8351V38.7576C31.7651 38.7551 31.447 38.7522 31.129 38.7564C30.9813 38.7581 30.8401 38.7989 30.7128 38.8726C30.2957 39.1159 30.1303 39.512 30.107 39.9564C30.0791 40.4954 30.1007 41.0373 30.1007 41.578V41.6571C30.0711 41.6588 30.0504 41.6605 30.0288 41.6605C28.9003 41.6609 27.7718 41.6601 26.6434 41.6621C26.5808 41.6621 26.5689 41.6426 26.5689 41.5855C26.571 40.6612 26.5706 39.7365 26.5702 38.8118C26.5702 38.7931 26.5685 38.7747 26.5672 38.7551C26.2453 38.7551 25.9294 38.7539 25.6139 38.7556C25.3766 38.7564 25.1638 38.8305 24.9866 38.9859C24.6871 39.2487 24.5581 39.594 24.5484 39.976C24.534 40.5096 24.5446 41.0444 24.5446 41.5784C24.5446 41.6605 24.5446 41.6605 24.4592 41.6605H18.9563H18.8717V41.7346C18.8717 42.0308 18.8688 42.3269 18.873 42.6231C18.8747 42.7743 18.8734 42.9288 18.9001 43.0767C18.9466 43.3341 19.1006 43.5103 19.3594 43.5944C19.5121 43.644 19.6673 43.6444 19.8238 43.6444H30.6667C30.7056 43.6444 30.7449 43.644 30.7838 43.6428C31.0482 43.634 31.2888 43.5532 31.4974 43.3949C31.9076 43.0825 32.0709 42.6439 32.1191 42.1553C32.1361 41.9791 32.1221 41.8 32.1221 41.6221V38.8351ZM38.5386 40.308C38.5233 40.308 38.5064 40.3038 38.4933 40.3092C38.4802 40.3142 38.4624 40.3292 38.4624 40.3401C38.4603 40.4829 38.4607 40.6258 38.4607 40.7737C38.5504 40.7737 38.6328 40.7762 38.7149 40.7728C38.7618 40.7708 38.7804 40.7828 38.7796 40.8328C38.7775 41.0282 38.7796 41.2231 38.7796 41.4185C38.7796 41.5284 38.7517 41.6305 38.6853 41.72C38.588 41.8504 38.4476 41.8862 38.294 41.8879C38.1024 41.89 37.9108 41.8871 37.7192 41.89C37.668 41.8908 37.6553 41.8733 37.657 41.8271C37.6604 41.7438 37.6579 41.6609 37.6579 41.5767H37.1906V43.9318H37.6579C37.6579 43.8485 37.6621 43.7673 37.657 43.6865C37.6528 43.6278 37.6744 43.6157 37.7311 43.6157C38.2124 43.6178 38.6938 43.6182 39.1747 43.6165C39.5152 43.6157 39.8387 43.5499 40.1158 43.342C40.5028 43.0517 40.6623 42.6443 40.6783 42.1824C40.6931 41.7346 40.6817 41.286 40.68 40.8378C40.68 40.7874 40.6919 40.7695 40.7456 40.7724C40.8302 40.777 40.9152 40.7737 40.9998 40.7737V40.2976C40.9655 40.3009 40.9312 40.3076 40.897 40.3076C40.1107 40.308 39.3244 40.308 38.5386 40.308Z" fill="#1765FC"/>
</svg>
